<svg width="72" height="72" viewBox="0 0 72 72" fill="none" xmlns="http://www.w3.org/2000/svg">
<path d="M30.96 42.48L23.22 34.74C22.56 34.08 21.72 33.75 20.7 33.75C19.68 33.75 18.84 34.08 18.18 34.74C17.52 35.4 17.19 36.24 17.19 37.26C17.19 38.28 17.52 39.12 18.18 39.78L28.44 50.04C29.16 50.76 30 51.12 30.96 51.12C31.92 51.12 32.76 50.76 33.48 50.04L53.82 29.7C54.48 29.04 54.81 28.2 54.81 27.18C54.81 26.16 54.48 25.32 53.82 24.66C53.16 24 52.32 23.67 51.3 23.67C50.28 23.67 49.44 24 48.78 24.66L30.96 42.48ZM36 72C31.02 72 26.34 71.0544 21.96 69.1632C17.58 67.272 13.77 64.7076 10.53 61.47C7.29 58.23 4.7256 54.42 2.8368 50.04C0.948 45.66 0.0024 40.98 0 36C0 31.02 0.9456 26.34 2.8368 21.96C4.728 17.58 7.2924 13.77 10.53 10.53C13.77 7.29 17.58 4.7256 21.96 2.8368C26.34 0.948 31.02 0.0024 36 0C40.98 0 45.66 0.9456 50.04 2.8368C54.42 4.728 58.23 7.2924 61.47 10.53C64.71 13.77 67.2756 17.58 69.1668 21.96C71.058 26.34 72.0024 31.02 72 36C72 40.98 71.0544 45.66 69.1632 50.04C67.272 54.42 64.7076 58.23 61.47 61.47C58.23 64.71 54.42 67.2756 50.04 69.1668C45.66 71.058 40.98 72.0024 36 72ZM36 64.8C44.04 64.8 50.85 62.01 56.43 56.43C62.01 50.85 64.8 44.04 64.8 36C64.8 27.96 62.01 21.15 56.43 15.57C50.85 9.99 44.04 7.2 36 7.2C27.96 7.2 21.15 9.99 15.57 15.57C9.99 21.15 7.2 27.96 7.2 36C7.2 44.04 9.99 50.85 15.57 56.43C21.15 62.01 27.96 64.8 36 64.8Z" fill="#FF9201"/>
</svg>
