<svg width="186" height="42" viewBox="0 0 186 42" fill="none" xmlns="http://www.w3.org/2000/svg">
<path d="M13.6743 41.9997C13.412 41.9997 13.2563 41.8003 13.2563 41.6015V19.0513C13.2563 18.5377 12.8396 18.1395 12.3168 18.1395H8.87104C8.34687 18.1395 7.93154 18.5377 7.93154 19.0513V41.6015C7.93154 41.8514 7.72053 41.9997 7.5122 41.9997C7.25123 41.9997 7.09375 41.8003 7.09375 41.6015V19.0513C7.09375 18.0902 7.93154 17.2773 8.92234 17.2773H12.3676C13.3611 17.2773 14.1958 18.0902 14.1958 19.0513V41.6015C14.0923 41.8514 13.9366 41.9997 13.6743 41.9997Z" fill="#E62336"/>
<path d="M8.28906 41.2887V19.4017C8.28906 18.837 8.75971 18.3731 9.3334 18.3731H11.841C12.4147 18.3731 12.8853 18.837 12.8853 19.4017V41.2887C12.8853 41.2887 12.0506 40.5251 10.5865 40.5251C9.12507 40.5251 8.28906 41.2887 8.28906 41.2887Z" fill="#EAE3D2"/>
<path d="M10.5865 18.4385H9.3334C8.75971 18.4385 8.28906 18.886 8.28906 19.4502V41.3372C8.28906 41.3372 9.12507 40.5754 10.5865 40.5754V18.4385Z" fill="#C0B09B"/>
<path d="M12.8398 19.3978C12.8406 18.8326 12.372 18.3684 11.7964 18.3692L9.29108 18.372C8.71602 18.3724 8.24619 18.8377 8.24581 19.403L12.8398 19.3978Z" fill="#0095D4"/>
<path d="M10.5859 19.4017H8.28848C8.28848 18.8375 8.75913 18.3731 9.33282 18.3731H10.5859V19.4017Z" fill="#005CA9"/>
<path d="M25.0548 41.9997C24.7951 41.9997 24.6377 41.8003 24.6377 41.6015V19.0513C24.6377 18.5377 24.2197 18.1395 23.6982 18.1395H20.2502C19.7283 18.1395 19.3103 18.5377 19.3103 19.0513V41.6015C19.3103 41.8514 19.1019 41.9997 18.8922 41.9997C18.6839 41.9997 18.4756 41.8003 18.4756 41.6015V19.0513C18.4756 18.0902 19.3103 17.2773 20.3037 17.2773H23.7495C24.7412 17.2773 25.5776 18.0902 25.5776 19.0513V41.6015C25.4728 41.8514 25.2644 41.9997 25.0548 41.9997Z" fill="#009E3D"/>
<path d="M19.623 41.2886V19.4016C19.623 18.837 20.095 18.373 20.6692 18.373H23.1763C23.7491 18.373 24.2193 18.837 24.2193 19.4016V41.2886C24.2193 41.2886 23.3846 40.525 21.9218 40.525C20.4608 40.525 19.623 41.2886 19.623 41.2886Z" fill="#EAE3D2"/>
<path d="M21.9218 18.4385H20.6692C20.095 18.4385 19.623 18.886 19.623 19.4502V41.3372C19.623 41.3372 20.4608 40.5754 21.9218 40.5754V18.4385Z" fill="#C0B09B"/>
<path d="M24.2187 19.3978C24.2195 18.8326 23.7495 18.3684 23.1772 18.3692L20.6704 18.3721C20.0963 18.3724 19.6241 18.8379 19.6234 19.4027L24.2187 19.3978Z" fill="#0095D4"/>
<path d="M21.9238 19.4016H19.625C19.625 18.8374 20.0966 18.373 20.6707 18.373H21.9238V19.4016Z" fill="#005CA9"/>
<path d="M36.3868 41.9997C36.1258 41.9997 35.9697 41.8003 35.9697 41.6015V19.0513C35.9697 18.5377 35.5517 18.1395 35.0302 18.1395H31.5822C31.0603 18.1395 30.6423 18.5377 30.6423 19.0513V41.6015C30.6423 41.8514 30.434 41.9997 30.2243 41.9997C29.9633 41.9997 29.8076 41.8003 29.8076 41.6015V19.0513C29.8076 18.0902 30.6423 17.2773 31.6358 17.2773H34.9762C35.9697 17.2773 36.8048 18.0902 36.8048 19.0513V41.6015C36.8048 41.8514 36.6473 41.9997 36.3868 41.9997Z" fill="#FBBA00"/>
<path d="M31.0059 41.2887V19.4017C31.0059 18.837 31.4765 18.3731 32.0515 18.3731H34.5573C35.1315 18.3731 35.6021 18.837 35.6021 19.4017V41.2887C35.6021 41.2887 34.7657 40.5251 33.3047 40.5251C31.8405 40.5251 31.0059 41.2887 31.0059 41.2887Z" fill="#EAE3D2"/>
<path d="M33.3047 18.4385H32.0515C31.4765 18.4385 31.0059 18.886 31.0059 19.4502V41.3372C31.0059 41.3372 31.8405 40.5754 33.3047 40.5754V18.4385Z" fill="#C0B09B"/>
<path d="M35.5506 19.3978C35.5513 18.8326 35.0813 18.3684 34.5061 18.3694L32.0009 18.372C31.4281 18.3727 30.9561 18.8379 30.9553 19.4031L35.5506 19.3978Z" fill="#0095D4"/>
<path d="M33.3047 19.4016H31.0059C31.0059 18.8374 31.4765 18.373 32.052 18.373H33.3047V19.4016Z" fill="#005CA9"/>
<path d="M43.4371 17.5755C43.3323 17.5755 43.2274 17.5263 43.1748 17.477L24.7416 2.80252C24.6894 2.75324 24.6381 2.70219 24.5333 2.63649C24.1153 2.33861 23.7499 2.0394 23.7499 1.32646C23.7499 1.07786 23.5412 0.862552 23.2806 0.862552H20.5125C20.2507 0.862552 20.0423 1.07786 20.0423 1.32646C20.0423 2.09001 19.6779 2.33861 19.2599 2.63649C19.2059 2.70219 19.155 2.75324 19.0502 2.80252L0.720544 17.477C0.512212 17.6266 0.251239 17.5755 0.0937629 17.4273C-0.0619286 17.212 -0.009734 16.9634 0.147742 16.8138L18.5796 2.13929C18.6335 2.09001 18.6844 2.0394 18.7892 1.98968C19.155 1.72466 19.2059 1.62433 19.2059 1.32646C19.2059 0.613952 19.7814 0 20.5638 0H23.3315C24.0631 0 24.6894 0.564676 24.6894 1.32646C24.6894 1.67538 24.7416 1.72466 25.1088 1.98968C25.1601 2.0394 25.2649 2.09001 25.3171 2.13929L43.7503 16.8138C43.9586 16.9634 43.9586 17.212 43.8011 17.4273C43.6967 17.5263 43.5419 17.5755 43.4371 17.5755Z" fill="#005CA9"/>
<path d="M19.6208 3.10131L2.23242 16.7157C2.23242 16.7157 3.69476 16.6154 4.42638 17.2129C4.42638 17.2129 21.0323 10.9282 21.8674 4.37848V1.8916H20.2471C20.3011 1.8916 20.352 2.53841 19.6208 3.10131Z" fill="#C0B09B"/>
<path d="M24.2204 3.10131L41.6092 16.765C41.6092 16.765 40.1464 16.6646 39.4166 17.2622C39.4166 17.2622 22.8103 10.9775 21.9756 4.42776V1.8916H23.5941C23.5414 1.8916 23.4892 2.53841 24.2204 3.10131Z" fill="#EAE3D2"/>
<path d="M21.9219 1.89183H20.3021C20.3021 1.89183 20.2499 1.27832 20.7201 1.27832H21.9219V1.89183Z" fill="#E62336"/>
<path d="M21.9248 1.89183H23.5451C23.5451 1.89183 23.5959 1.27832 23.1266 1.27832H21.9248V1.89183Z" fill="#EA5153"/>
<path d="M63.8052 26.149V31.8859H60.5669V29.0998H53.9342V31.8859H50.6973V26.149H52.0548C52.7337 25.2372 53.2044 23.9605 53.2044 21.5397V15.4375H62.2367V26.1983H63.8052V26.149ZM59.0533 26.1983V18.3883H56.4413V21.6383C56.4413 23.9605 56.0233 25.3362 55.5018 26.1983H59.0533Z" fill="#3A3B41"/>
<path d="M65.2119 22.2526C65.2119 18.2391 68.5015 15.1387 72.5223 15.1387C76.5444 15.1387 79.8326 18.2391 79.8326 22.2526C79.8326 26.2484 76.5444 29.3488 72.5223 29.3488C68.5015 29.3488 65.2119 26.3141 65.2119 22.2526ZM76.6465 22.2526C76.6465 19.8154 74.8211 18.1898 72.5749 18.1898C70.2775 18.1898 68.5015 19.8154 68.5015 22.2526C68.5015 24.6898 70.3283 26.3141 72.5749 26.3141C74.8211 26.3141 76.6465 24.7395 76.6465 22.2526Z" fill="#3A3B41"/>
<path d="M95.8652 29.348H92.6269V20.7265L89.9115 26.9605H87.7188L85.0047 20.7265V29.498H81.7646V15.4375H85.4201L88.8145 23.3137L92.2089 15.4375H95.813V29.348H95.8652Z" fill="#3A3B41"/>
<path d="M115.864 24.7883C115.864 27.5251 113.775 29.4158 110.536 29.4158C107.299 29.4158 105.21 27.3755 105.21 24.5908H108.449C108.449 25.5519 109.127 26.4637 110.536 26.4637C112 26.4637 112.626 25.7512 112.626 24.7883C112.626 23.8272 111.946 23.1147 110.536 23.1147H109.44V20.1626H111.058C111.528 19.914 111.687 19.4501 111.687 19.1518C111.687 18.489 111.269 18.0908 110.38 18.0908C109.492 18.0908 109.075 18.489 109.075 19.1518H105.836C105.836 16.7643 107.665 15.1387 110.38 15.1387C113.043 15.1387 114.924 16.7643 114.924 18.9529C114.924 19.7151 114.611 20.4782 114.035 21.0744C115.184 21.9365 115.864 23.2137 115.864 24.7883Z" fill="#3A3B41"/>
<path d="M129.127 15.4375V29.0998H125.889V23.5618H121.868V29.0998H118.631V15.4375H121.868V20.5604H125.889V15.4375H129.127Z" fill="#3A3B41"/>
<path d="M140.619 26.9605H135.658L135.031 29.0998H131.532L136.128 15.4375H140.201L144.796 29.0998H141.297L140.619 26.9605ZM139.731 24.0262L138.164 18.8358L136.598 24.0262H139.731Z" fill="#3A3B41"/>
<path d="M157.691 15.4375V29.0998H154.454V23.5618H150.431V29.0998H147.247V15.4375H150.484V20.5604H154.505V15.4375H157.691Z" fill="#3A3B41"/>
<path d="M168.555 21.4723L163.542 29.0998H161.14V15.4375H164.377V23.0473L169.39 15.4375H171.792V29.0998H168.555V21.4723Z" fill="#3A3B41"/>
<path d="M182.495 21.4884L177.482 29.0991H175.081V15.4372H178.318V23.0644L183.33 15.4372H185.734V29.0991H182.495V21.4884ZM177.587 11.7393H183.592V14.2755H177.587V11.7393Z" fill="#3A3B41"/>
<path d="M52.7815 38.5272H51.6185V40.9687H50.8379V35.4199H51.6185V37.8297H52.7975L54.5499 35.4199H55.4023L53.4108 38.1071L55.4978 40.9687H54.5898L52.7815 38.5272Z" fill="#3A3B41"/>
<path d="M61.3161 38.0757C61.6666 38.1708 61.9374 38.3373 62.1365 38.5672C62.3357 38.805 62.4313 39.0903 62.4313 39.4153C62.4313 39.7403 62.3277 40.0336 62.1206 40.2794C61.9055 40.5172 61.6267 40.7074 61.2842 40.8342C60.9337 40.969 60.5514 41.0324 60.1451 41.0324C59.7707 41.0324 59.4043 40.9769 59.0379 40.866C58.6714 40.755 58.3369 40.5885 58.0342 40.3666L58.313 39.78C58.5599 39.9702 58.8308 40.1129 59.1335 40.208C59.4362 40.3031 59.7388 40.3507 60.0495 40.3507C60.4956 40.3507 60.87 40.2556 61.1727 40.0653C61.4754 39.883 61.6267 39.6214 61.6267 39.2964C61.6267 39.019 61.5152 38.797 61.2842 38.6464C61.0532 38.4958 60.7346 38.4245 60.3203 38.4245H59.0777V37.7824H60.2646C60.623 37.7824 60.9018 37.7111 61.101 37.5605C61.3001 37.4178 61.3957 37.2196 61.3957 36.958C61.3957 36.6647 61.2683 36.4348 61.0054 36.2684C60.7425 36.1019 60.4159 36.0147 60.0176 36.0147C59.7548 36.0147 59.4919 36.0544 59.229 36.1257C58.9582 36.197 58.7033 36.308 58.4643 36.4586L58.2094 35.8086C58.4882 35.6501 58.7909 35.5312 59.1016 35.4519C59.4123 35.3726 59.7309 35.333 60.0415 35.333C60.4319 35.333 60.7983 35.3964 61.1249 35.5153C61.4515 35.6342 61.7144 35.8165 61.9135 36.0464C62.1047 36.2763 62.2003 36.5537 62.2003 36.8629C62.2003 37.1403 62.1206 37.3861 61.9693 37.6001C61.8099 37.8141 61.5949 37.9726 61.3161 38.0757Z" fill="#3A3B41"/>
<path d="M68.5542 35.4199V40.9687H67.7576V38.4955H64.5554V40.9687H63.7588V35.4199H64.5554V37.8059H67.7576V35.4199H68.5542Z" fill="#3A3B41"/>
<path d="M73.9166 39.5815H70.9534L70.34 40.9687H69.5195L72.0447 35.4199H72.8333L75.3664 40.9687H74.53L73.9166 39.5815ZM73.6378 38.9474L72.435 36.2285L71.2322 38.9474H73.6378Z" fill="#3A3B41"/>
<path d="M81.1264 35.4199V40.9687H80.3299V38.4955H77.1276V40.9687H76.3311V35.4199H77.1276V37.8059H80.3299V35.4199H81.1264Z" fill="#3A3B41"/>
<path d="M82.8584 35.4199H83.647V39.7004L86.9448 35.4199H87.6777V40.9687H86.897V36.6961L83.5912 40.9687H82.8584V35.4199Z" fill="#3A3B41"/>
<path d="M93.5034 35.4199V40.9687H92.7228V39.3516H91.1854C91.0898 39.3516 91.0181 39.3516 90.9703 39.3437L89.8551 40.9687H89.0107L90.2454 39.209C89.8471 39.0742 89.5444 38.8522 89.3294 38.5431C89.1143 38.2419 89.0107 37.8614 89.0107 37.4175C89.0107 36.7913 89.2179 36.2998 89.6241 35.951C90.0304 35.5943 90.572 35.4199 91.265 35.4199H93.5034ZM89.8153 37.4096C89.8153 37.8218 89.9348 38.1388 90.1737 38.3529C90.4207 38.5748 90.7791 38.6858 91.2491 38.6858H92.7228V36.1096H91.2969C90.819 36.1096 90.4525 36.2205 90.1976 36.4425C89.9427 36.6644 89.8153 36.9894 89.8153 37.4096Z" fill="#3A3B41"/>
<path d="M100.41 40.9687L100.402 36.926L98.3867 40.2949H98.0203L96.0049 36.9498V40.9687H95.2402V35.4199H95.8934L98.2194 39.3199L100.514 35.4199H101.167L101.175 40.9687H100.41Z" fill="#3A3B41"/>
<path d="M107.546 41.0311C106.988 41.0311 106.487 40.9043 106.04 40.6585C105.586 40.4128 105.236 40.0799 104.981 39.6439C104.726 39.2158 104.599 38.7323 104.599 38.1933C104.599 37.6543 104.726 37.1707 104.981 36.7347C105.236 36.3067 105.586 35.9738 106.04 35.7201C106.494 35.4744 106.996 35.3555 107.554 35.3555C107.992 35.3555 108.39 35.4268 108.749 35.5695C109.107 35.7201 109.418 35.9341 109.673 36.2195L109.155 36.7189C108.733 36.2829 108.215 36.061 107.586 36.061C107.172 36.061 106.797 36.1561 106.463 36.3384C106.128 36.5207 105.865 36.7744 105.682 37.0994C105.491 37.4244 105.395 37.789 105.395 38.1933C105.395 38.5976 105.491 38.9543 105.682 39.2793C105.865 39.6043 106.128 39.8658 106.463 40.0482C106.797 40.2305 107.172 40.3256 107.586 40.3256C108.207 40.3256 108.733 40.1037 109.155 39.6597L109.673 40.1591C109.418 40.4445 109.107 40.6585 108.749 40.8091C108.382 40.9598 107.984 41.0311 107.546 41.0311Z" fill="#3A3B41"/>
<path d="M117.475 35.4199V40.9687H116.695V36.1096H114.225L114.17 37.7346C114.146 38.5035 114.082 39.1218 113.986 39.5974C113.883 40.073 113.732 40.4297 113.516 40.6675C113.301 40.9132 113.015 41.0321 112.656 41.0321C112.489 41.0321 112.322 41.0084 112.154 40.9687L112.21 40.2632C112.298 40.287 112.377 40.2949 112.465 40.2949C112.696 40.2949 112.879 40.1998 113.015 40.0254C113.15 39.8431 113.254 39.5657 113.325 39.201C113.397 38.8364 113.437 38.3529 113.461 37.7583L113.548 35.4199H117.475Z" fill="#3A3B41"/>
<path d="M123.83 35.3555C124.364 35.3555 124.85 35.4744 125.28 35.7201C125.71 35.9738 126.053 36.3067 126.299 36.7347C126.546 37.1707 126.666 37.6543 126.666 38.1933C126.666 38.7323 126.546 39.2158 126.299 39.6439C126.053 40.0799 125.71 40.4128 125.28 40.6585C124.85 40.9043 124.364 41.0311 123.83 41.0311C123.328 41.0311 122.874 40.9201 122.468 40.7061C122.062 40.4921 121.727 40.1908 121.472 39.8104C121.217 39.4299 121.066 38.9939 121.018 38.5104H119.999V40.9677H119.21V35.4189H119.999V37.7969H121.026C121.082 37.3293 121.241 36.9091 121.504 36.5366C121.759 36.164 122.086 35.8786 122.492 35.6646C122.898 35.4585 123.344 35.3555 123.83 35.3555ZM123.83 40.3177C124.212 40.3177 124.563 40.2226 124.874 40.0402C125.184 39.8579 125.423 39.6122 125.606 39.2872C125.782 38.9622 125.869 38.5976 125.869 38.1933C125.869 37.789 125.782 37.4244 125.606 37.0994C125.423 36.7744 125.184 36.5207 124.874 36.3384C124.563 36.1561 124.212 36.0689 123.83 36.0689C123.456 36.0689 123.113 36.1561 122.803 36.3384C122.492 36.5207 122.253 36.7744 122.078 37.0994C121.894 37.4244 121.807 37.789 121.807 38.1933C121.807 38.5976 121.894 38.9622 122.078 39.2872C122.253 39.6122 122.492 39.8579 122.803 40.0402C123.113 40.2226 123.456 40.3177 123.83 40.3177Z" fill="#3A3B41"/>
<path d="M127.964 35.4199H132.17V36.0937H128.752V37.6791H130.489C131.15 37.6791 131.66 37.8138 132.002 38.0913C132.345 38.3687 132.52 38.7651 132.52 39.2803C132.52 39.8273 132.337 40.2394 131.963 40.5327C131.588 40.826 131.047 40.9687 130.354 40.9687H127.964V35.4199ZM130.322 40.3425C130.776 40.3425 131.126 40.2553 131.365 40.0809C131.604 39.9065 131.724 39.6529 131.724 39.312C131.724 38.6382 131.254 38.3053 130.322 38.3053H128.752V40.3425H130.322Z" fill="#3A3B41"/>
<path d="M136.296 41.0311C135.731 41.0311 135.229 40.9043 134.775 40.6585C134.321 40.4128 133.97 40.0799 133.716 39.6439C133.453 39.2079 133.325 38.7244 133.325 38.1933C133.325 37.6622 133.453 37.1786 133.716 36.7427C133.97 36.3067 134.321 35.9738 134.775 35.7201C135.229 35.4744 135.731 35.3555 136.296 35.3555C136.854 35.3555 137.356 35.4744 137.81 35.7201C138.264 35.9738 138.614 36.3067 138.869 36.7347C139.124 37.1707 139.252 37.6543 139.252 38.1933C139.252 38.7323 139.124 39.2158 138.869 39.6439C138.614 40.0799 138.264 40.4128 137.81 40.6585C137.356 40.9043 136.854 41.0311 136.296 41.0311ZM136.296 40.3256C136.703 40.3256 137.077 40.2305 137.404 40.0482C137.73 39.8658 137.985 39.6043 138.176 39.2793C138.36 38.9543 138.455 38.5976 138.455 38.1933C138.455 37.789 138.36 37.4244 138.176 37.0994C137.985 36.7744 137.73 36.5207 137.404 36.3384C137.077 36.1561 136.703 36.061 136.296 36.061C135.89 36.061 135.516 36.1561 135.181 36.3384C134.855 36.5207 134.592 36.7744 134.409 37.0994C134.217 37.4244 134.122 37.789 134.122 38.1933C134.122 38.5976 134.217 38.9543 134.409 39.2793C134.592 39.6043 134.855 39.8658 135.181 40.0482C135.516 40.2305 135.89 40.3256 136.296 40.3256Z" fill="#3A3B41"/>
<path d="M144.016 38.0913C144.39 38.1785 144.677 38.337 144.876 38.5669C145.068 38.7968 145.163 39.098 145.163 39.4547C145.163 39.9382 144.988 40.3108 144.637 40.5724C144.279 40.834 143.769 40.9687 143.092 40.9687H140.543V35.4199H142.941C143.554 35.4199 144.032 35.5388 144.374 35.7846C144.709 36.0303 144.884 36.387 144.884 36.8468C144.884 37.148 144.813 37.4016 144.653 37.6157C144.51 37.8297 144.295 37.9882 144.016 38.0913ZM141.332 37.8614H142.885C143.275 37.8614 143.57 37.7821 143.777 37.6315C143.976 37.4809 144.08 37.251 144.08 36.9577C144.08 36.6644 143.976 36.4346 143.769 36.276C143.562 36.1254 143.267 36.0461 142.885 36.0461H141.332V37.8614ZM143.076 40.3425C143.928 40.3425 144.359 40.0254 144.359 39.3913C144.359 39.0742 144.255 38.8364 144.04 38.6858C143.825 38.5352 143.498 38.4638 143.076 38.4638H141.332V40.3425H143.076Z" fill="#3A3B41"/>
<path d="M148.939 37.3541C149.6 37.3541 150.11 37.5047 150.468 37.798C150.819 38.0913 150.994 38.5272 150.994 39.1059C150.994 39.7163 150.803 40.176 150.428 40.4931C150.046 40.8102 149.504 40.9687 148.795 40.9687H146.493V35.4199H147.282V37.3541H148.939ZM148.763 40.3425C149.225 40.3425 149.584 40.2394 149.831 40.0333C150.078 39.8193 150.197 39.5181 150.197 39.1218C150.197 38.3608 149.719 37.9803 148.763 37.9803H147.282V40.3425H148.763Z" fill="#3A3B41"/>
<path d="M156.789 35.3555C157.323 35.3555 157.809 35.4744 158.239 35.7201C158.669 35.9738 159.012 36.3067 159.258 36.7347C159.505 37.1707 159.625 37.6543 159.625 38.1933C159.625 38.7323 159.505 39.2158 159.258 39.6439C159.012 40.0799 158.669 40.4128 158.239 40.6585C157.809 40.9043 157.323 41.0311 156.789 41.0311C156.287 41.0311 155.833 40.9201 155.427 40.7061C155.021 40.4921 154.686 40.1908 154.431 39.8104C154.176 39.4299 154.025 38.9939 153.977 38.5104H152.958V40.9677H152.169V35.4189H152.958V37.7969H153.985C154.041 37.3293 154.2 36.9091 154.463 36.5366C154.718 36.164 155.045 35.8786 155.451 35.6646C155.857 35.4585 156.303 35.3555 156.789 35.3555ZM156.789 40.3177C157.171 40.3177 157.522 40.2226 157.833 40.0402C158.143 39.8579 158.382 39.6122 158.565 39.2872C158.741 38.9622 158.828 38.5976 158.828 38.1933C158.828 37.789 158.741 37.4244 158.565 37.0994C158.382 36.7744 158.143 36.5207 157.833 36.3384C157.522 36.1561 157.171 36.0689 156.789 36.0689C156.415 36.0689 156.072 36.1561 155.761 36.3384C155.451 36.5207 155.212 36.7744 155.037 37.0994C154.853 37.4244 154.766 37.789 154.766 38.1933C154.766 38.5976 154.853 38.9622 155.037 39.2872C155.212 39.6122 155.451 39.8579 155.761 40.0402C156.072 40.2226 156.415 40.3177 156.789 40.3177Z" fill="#3A3B41"/>
<path d="M160.676 35.4199H161.576L161.425 39.2169H160.82L160.676 35.4199ZM161.13 41.0163C160.979 41.0163 160.859 40.9687 160.756 40.8657C160.652 40.7705 160.604 40.6516 160.604 40.509C160.604 40.3663 160.652 40.2474 160.756 40.1523C160.859 40.0492 160.979 40.0016 161.13 40.0016C161.282 40.0016 161.401 40.0492 161.497 40.1523C161.592 40.2474 161.64 40.3663 161.64 40.509C161.64 40.6516 161.592 40.7705 161.497 40.8657C161.393 40.9687 161.274 41.0163 161.13 41.0163Z" fill="#3A3B41"/>
</svg>
