<svg width="32" height="32" viewBox="0 0 32 32" fill="none" xmlns="http://www.w3.org/2000/svg">
<circle cx="16" cy="16" r="16" fill="#504CFF"/>
<path d="M23.2097 8.1545C23.2097 8.1545 25.1523 7.397 24.9904 9.23664C24.9365 9.99415 24.4508 12.6454 24.073 15.5131L22.778 24.0079C22.778 24.0079 22.67 25.2524 21.6987 25.4688C20.7274 25.6852 19.2704 24.7113 19.0005 24.4949C18.7847 24.3326 14.9534 21.8977 13.6043 20.7074C13.2265 20.3827 12.7948 19.7334 13.6582 18.976L19.3244 13.5653C19.9719 12.916 20.6194 11.4009 17.9213 13.2406L10.3666 18.3808C10.3666 18.3808 9.50315 18.9219 7.8843 18.4349L4.37671 17.3527C4.37671 17.3527 3.08161 16.5412 5.29408 15.7295C10.6904 13.1865 17.3278 10.5893 23.2097 8.1545Z" fill="white"/>
</svg>
