<svg width="32" height="32" viewBox="0 0 32 32" fill="none" xmlns="http://www.w3.org/2000/svg">
<circle cx="16" cy="16" r="16" fill="#504CFF"/>
<path d="M11.9651 10.202C11.7792 10.1749 11.5897 10.2124 11.4281 10.308H11.4141C11.0391 10.528 10.7011 10.805 10.4131 11.131C10.1731 11.408 10.0431 11.688 10.0091 11.958C9.98909 12.118 10.0031 12.28 10.0501 12.433L10.0681 12.443C10.3381 13.236 10.6901 13.999 11.1201 14.717C11.6745 15.7255 12.3568 16.6582 13.1501 17.492L13.1741 17.526L13.2121 17.554L13.2351 17.581L13.2631 17.605C14.0998 18.4006 15.0347 19.0862 16.0451 19.645C17.2001 20.274 17.9011 20.571 18.3221 20.695V20.701C18.4451 20.739 18.5571 20.756 18.6701 20.756C19.0286 20.7295 19.368 20.5838 19.6341 20.342C19.9591 20.054 20.2341 19.715 20.4481 19.338V19.331C20.6491 18.951 20.5811 18.593 20.2911 18.35C19.7086 17.841 19.0787 17.389 18.4101 17C17.9621 16.757 17.5071 16.904 17.3231 17.15L16.9301 17.646C16.7281 17.892 16.3621 17.858 16.3621 17.858L16.3521 17.864C13.6211 17.167 12.8921 14.402 12.8921 14.402C12.8921 14.402 12.8581 14.026 13.1111 13.834L13.6031 13.438C13.8391 13.246 14.0031 12.792 13.7501 12.344C13.3637 11.6748 12.9125 11.0451 12.4031 10.464C12.292 10.3272 12.1362 10.2341 11.9631 10.201L11.9651 10.202ZM16.5801 9C16.4475 9 16.3203 9.05268 16.2265 9.14645C16.1328 9.24021 16.0801 9.36739 16.0801 9.5C16.0801 9.63261 16.1328 9.75979 16.2265 9.85355C16.3203 9.94732 16.4475 10 16.5801 10C17.8441 10 18.8941 10.413 19.7251 11.205C20.1521 11.638 20.4851 12.151 20.7031 12.713C20.9221 13.276 21.0221 13.877 20.9961 14.479C20.9905 14.6116 21.0379 14.741 21.1277 14.8387C21.2175 14.9364 21.3425 14.9944 21.4751 15C21.6077 15.0056 21.7371 14.9582 21.8348 14.8684C21.9325 14.7786 21.9905 14.6536 21.9961 14.521C22.0271 13.7805 21.9042 13.0416 21.6351 12.351C21.3648 11.6571 20.955 11.0261 20.4311 10.497L20.4211 10.487C19.3901 9.502 18.0861 9 16.5801 9Z" fill="white"/>
<path d="M16.5449 10.6439C16.4123 10.6439 16.2851 10.6966 16.1914 10.7904C16.0976 10.8842 16.0449 11.0113 16.0449 11.1439C16.0449 11.2766 16.0976 11.4037 16.1914 11.4975C16.2851 11.5913 16.4123 11.6439 16.5449 11.6439H16.5619C17.4739 11.7089 18.1379 12.0129 18.6029 12.5119C19.0799 13.0259 19.3269 13.6649 19.3079 14.4549C19.3049 14.5876 19.3546 14.7159 19.4462 14.8119C19.5378 14.9078 19.6638 14.9634 19.7964 14.9664C19.929 14.9695 20.0574 14.9197 20.1533 14.8281C20.2493 14.7365 20.3049 14.6106 20.3079 14.4779C20.3319 13.4409 19.9979 12.5459 19.3359 11.8319V11.8299C18.6589 11.1039 17.7299 10.7199 16.6119 10.6449L16.5949 10.6429L16.5449 10.6439Z" fill="white"/>
<path d="M16.5259 12.319C16.459 12.313 16.3915 12.3207 16.3277 12.3414C16.2638 12.3621 16.2047 12.3955 16.154 12.4396C16.1033 12.4836 16.062 12.5375 16.0325 12.5978C16.0031 12.6582 15.9861 12.7239 15.9826 12.791C15.9791 12.8581 15.9892 12.9252 16.0122 12.9883C16.0352 13.0514 16.0707 13.1092 16.1165 13.1583C16.1624 13.2074 16.2177 13.2468 16.2791 13.274C16.3405 13.3013 16.4067 13.3159 16.4739 13.317C16.8919 13.339 17.1589 13.465 17.3269 13.634C17.4959 13.804 17.6219 14.077 17.6449 14.504C17.6461 14.5711 17.6609 14.6372 17.6882 14.6985C17.7156 14.7598 17.755 14.8149 17.8041 14.8606C17.8533 14.9064 17.9111 14.9417 17.9742 14.9646C18.0372 14.9875 18.1043 14.9975 18.1713 14.994C18.2383 14.9904 18.3039 14.9734 18.3642 14.9439C18.4245 14.9145 18.4783 14.8732 18.5223 14.8225C18.5663 14.7718 18.5997 14.7128 18.6204 14.649C18.6411 14.5852 18.6487 14.5178 18.6429 14.451C18.6109 13.851 18.4229 13.321 18.0379 12.931C17.6509 12.541 17.1239 12.351 16.5259 12.319Z" fill="white"/>
<path fill-rule="evenodd" clip-rule="evenodd" d="M11.0671 6.38406C14.2491 5.67276 17.549 5.67276 20.7311 6.38406L21.0701 6.45906C22.0003 6.66701 22.8546 7.12879 23.5381 7.79308C24.2217 8.45738 24.7076 9.29818 24.9421 10.2221C25.7498 13.4049 25.7498 16.7392 24.9421 19.9221C24.7076 20.8459 24.2217 21.6867 23.5381 22.351C22.8546 23.0153 22.0003 23.4771 21.0701 23.6851L20.7301 23.7601C18.7371 24.2057 16.692 24.3737 14.6531 24.2591L12.0001 26.6331C11.9 26.7226 11.7778 26.7837 11.6461 26.8099C11.5145 26.8361 11.3782 26.8265 11.2515 26.782C11.1248 26.7376 11.0124 26.6599 10.9259 26.5572C10.8395 26.4545 10.7822 26.3305 10.7601 26.1981L10.3211 23.5761C9.47924 23.3141 8.71866 22.8407 8.11202 22.2009C7.50538 21.5612 7.07295 20.7766 6.85605 19.9221C6.04831 16.7392 6.04831 13.4049 6.85605 10.2221C7.09047 9.29818 7.57645 8.45738 8.25999 7.79308C8.94353 7.12879 9.79786 6.66701 10.7281 6.45906L11.0671 6.38406ZM20.4041 7.84706C17.4373 7.18386 14.3608 7.18386 11.3941 7.84706L11.0541 7.92306C10.3948 8.07071 9.78932 8.39821 9.30493 8.86919C8.82054 9.34016 8.47616 9.93618 8.31005 10.5911C7.56377 13.5318 7.56377 16.6123 8.31005 19.5531C8.47624 20.2081 8.82077 20.8042 9.30535 21.2752C9.78993 21.7461 10.3956 22.0736 11.0551 22.2211L11.1451 22.2411C11.2906 22.2736 11.4232 22.3489 11.5258 22.4572C11.6284 22.5655 11.6964 22.7019 11.7211 22.8491L12.0151 24.6071L13.8871 22.9321C13.9618 22.865 14.0493 22.8136 14.1443 22.7809C14.2393 22.7483 14.3399 22.7351 14.4401 22.7421C16.4391 22.8839 18.4482 22.734 20.4041 22.2971L20.7431 22.2211C21.4025 22.0736 22.0082 21.7461 22.4928 21.2752C22.9773 20.8042 23.3219 20.2081 23.4881 19.5531C24.2341 16.6131 24.2341 13.5321 23.4881 10.5911C23.3219 9.93606 22.9773 9.33995 22.4928 8.86896C22.0082 8.39798 21.4025 8.07055 20.7431 7.92306L20.4041 7.84706Z" fill="white"/>
</svg>
