<svg width="32" height="32" viewBox="0 0 32 32" fill="none" xmlns="http://www.w3.org/2000/svg">
<circle cx="16" cy="16" r="16" fill="#504CFF"/>
<path fill-rule="evenodd" clip-rule="evenodd" d="M26.7203 10.1875C26.8872 9.65875 26.7203 9.27437 25.982 9.27437H23.5272C22.908 9.27437 22.622 9.61094 22.4552 9.97094C22.4552 9.97094 21.1923 13.0459 19.4289 15.0395C18.857 15.6161 18.595 15.8083 18.2852 15.8083C18.1183 15.8083 17.9036 15.6161 17.9036 15.0878V10.1627C17.9036 9.53828 17.7133 9.25 17.1887 9.25H13.3281C12.9466 9.25 12.7084 9.53828 12.7084 9.82656C12.7084 10.427 13.5902 10.5714 13.6853 12.2528V15.9062C13.6853 16.6989 13.5447 16.8438 13.2325 16.8438C12.3986 16.8438 10.3731 13.7448 9.15812 10.2137C8.92188 9.51437 8.68188 9.25 8.06219 9.25H5.58391C4.86906 9.25 4.75 9.58609 4.75 9.94656C4.75 10.5953 5.58391 13.862 8.63406 18.1858C10.6595 21.1389 13.5428 22.7261 16.1402 22.7261C17.7133 22.7261 17.9036 22.3656 17.9036 21.7652V19.5311C17.9036 18.8106 18.0466 18.6906 18.5472 18.6906C18.9044 18.6906 19.548 18.8823 21.0016 20.2998C22.6694 21.9813 22.9553 22.75 23.8848 22.75H26.3392C27.0541 22.75 27.3878 22.3895 27.197 21.693C26.9828 20.9964 26.1723 19.9877 25.1238 18.7867C24.5519 18.1145 23.6941 17.3697 23.432 17.0092C23.0748 16.5287 23.17 16.3366 23.432 15.9044C23.4081 15.9044 26.4109 11.6284 26.7203 10.1856" fill="white"/>
</svg>
