<svg width="33" height="32" viewBox="0 0 33 32" fill="none" xmlns="http://www.w3.org/2000/svg">
<path d="M31.2956 15.2914C31.2984 15.2914 31.3005 15.2914 31.3033 15.2914C31.4982 15.2914 31.6841 15.2096 31.8161 15.0664C31.9501 14.9212 32.0165 14.7262 31.999 14.5292C31.2977 6.8148 25.1901 0.705022 17.475 0.00225125C17.2794 -0.0131175 17.0823 0.0504531 16.9371 0.185279C16.7917 0.319406 16.7106 0.508721 16.7128 0.706419C16.8343 10.9588 18.1868 15.1482 31.2956 15.2914ZM31.2956 16.7081C18.1868 16.8513 16.835 21.0407 16.7135 31.293C16.7114 31.4908 16.7924 31.6801 16.9377 31.8142C17.0676 31.9336 17.2374 32 17.4121 32C17.433 32 17.4546 31.9993 17.4756 31.9972C25.1908 31.2944 31.2984 25.1854 31.999 17.4703C32.0165 17.2732 31.9509 17.0783 31.8161 16.9331C31.6812 16.7877 31.4933 16.7158 31.2956 16.7081ZM14.4801 0.00574412C6.78945 0.728774 0.701327 6.83715 0.00344581 14.5306C-0.0140187 14.7276 0.0516479 14.9225 0.186474 15.0679C0.318505 15.2111 0.505026 15.292 0.699231 15.292C0.702025 15.292 0.70482 15.292 0.707614 15.292C13.7731 15.1418 15.1221 10.9546 15.2451 0.709214C15.2471 0.511516 15.1654 0.321502 15.0201 0.187375C14.8734 0.0532475 14.6772 -0.012419 14.4801 0.00574412ZM0.706916 16.7074C0.489657 16.6829 0.319204 16.7864 0.185775 16.9316C0.0516479 17.0769 -0.0147172 17.2719 0.00274726 17.4688C0.700628 25.1623 6.78945 31.2707 14.4801 31.9937C14.5018 31.9958 14.5241 31.9965 14.5458 31.9965C14.7204 31.9965 14.8895 31.9309 15.0195 31.8114C15.1647 31.6772 15.2465 31.4873 15.2443 31.2895C15.1214 21.0448 13.7731 16.8576 0.706916 16.7074Z" fill="#504CFF"/>
</svg>
