<svg width="32" height="32" viewBox="0 0 32 32" fill="none" xmlns="http://www.w3.org/2000/svg">
<circle cx="16" cy="16" r="16" fill="#504CFF"/>
<path d="M26.0576 10.945C25.9381 10.5011 25.7041 10.0963 25.3789 9.77115C25.0538 9.44604 24.649 9.21203 24.2051 9.09252C22.5701 8.65002 16.0001 8.65002 16.0001 8.65002C16.0001 8.65002 9.43008 8.65002 7.79508 9.09252C7.35111 9.21203 6.94631 9.44604 6.6212 9.77115C6.29609 10.0963 6.06208 10.5011 5.94258 10.945C5.63729 12.6125 5.48914 14.3049 5.50008 16C5.48914 17.6952 5.63729 19.3876 5.94258 21.055C6.06208 21.499 6.29609 21.9038 6.6212 22.2289C6.94631 22.554 7.35111 22.788 7.79508 22.9075C9.43008 23.35 16.0001 23.35 16.0001 23.35C16.0001 23.35 22.5701 23.35 24.2051 22.9075C24.649 22.788 25.0538 22.554 25.3789 22.2289C25.7041 21.9038 25.9381 21.499 26.0576 21.055C26.3629 19.3876 26.511 17.6952 26.5001 16C26.511 14.3049 26.3629 12.6125 26.0576 10.945ZM13.9001 19.15V12.85L19.3526 16L13.9001 19.15Z" fill="white"/>
</svg>
